<svg width="12" height="13" viewBox="0 0 12 13" fill="none" xmlns="http://www.w3.org/2000/svg">
<path d="M5.82031 7.30957C5.8724 7.36165 5.89844 7.42155 5.89844 7.48926C5.89844 7.55697 5.8724 7.61686 5.82031 7.66895L3.22656 10.2627L4.35156 11.3877C4.45052 11.4867 4.5 11.6038 4.5 11.7393C4.5 11.8747 4.45052 11.9919 4.35156 12.0908C4.2526 12.1898 4.13542 12.2393 4 12.2393H0.5C0.364583 12.2393 0.247396 12.1898 0.148438 12.0908C0.0494792 11.9919 0 11.8747 0 11.7393V8.23926C0 8.10384 0.0494792 7.98665 0.148438 7.8877C0.247396 7.78874 0.364583 7.73926 0.5 7.73926C0.635417 7.73926 0.752604 7.78874 0.851562 7.8877L1.97656 9.0127L4.57031 6.41895C4.6224 6.36686 4.68229 6.34082 4.75 6.34082C4.81771 6.34082 4.8776 6.36686 4.92969 6.41895L5.82031 7.30957ZM12 0.739258V4.23926C12 4.37467 11.9505 4.49186 11.8516 4.59082C11.7526 4.68978 11.6354 4.73926 11.5 4.73926C11.3646 4.73926 11.2474 4.68978 11.1484 4.59082L10.0234 3.46582L7.42969 6.05957C7.3776 6.11165 7.31771 6.1377 7.25 6.1377C7.18229 6.1377 7.1224 6.11165 7.07031 6.05957L6.17969 5.16895C6.1276 5.11686 6.10156 5.05697 6.10156 4.98926C6.10156 4.92155 6.1276 4.86165 6.17969 4.80957L8.77344 2.21582L7.64844 1.09082C7.54948 0.991862 7.5 0.874675 7.5 0.739258C7.5 0.603841 7.54948 0.486653 7.64844 0.387695C7.7474 0.288737 7.86458 0.239258 8 0.239258H11.5C11.6354 0.239258 11.7526 0.288737 11.8516 0.387695C11.9505 0.486653 12 0.603841 12 0.739258Z" fill="#868686"/>
</svg>
