<svg width="31" height="31" viewBox="0 0 31 31" fill="none" xmlns="http://www.w3.org/2000/svg">
    <g clip-path="url(#clip0_20_3271)">
        <path
            d="M19.982 14.4378L13.742 9.90184C13.513 9.73584 13.209 9.71084 12.958 9.83984C12.705 9.96784 12.547 10.2278 12.547 10.5088V19.5778C12.547 19.8618 12.705 20.1208 12.958 20.2488C13.065 20.3028 13.182 20.3298 13.3 20.3298C13.454 20.3298 13.61 20.2808 13.742 20.1838L19.982 15.6518C20.179 15.5068 20.294 15.2828 20.294 15.0448C20.295 14.8028 20.177 14.5798 19.982 14.4378Z"
            fill="white" />
        <path
            d="M15.026 0.00195312C6.726 0.00195312 0 6.72795 0 15.028C0 23.325 6.726 30.049 15.026 30.049C23.324 30.049 30.051 23.324 30.051 15.028C30.052 6.72795 23.324 0.00195312 15.026 0.00195312ZM15.026 27.542C8.114 27.542 2.51 21.941 2.51 15.028C2.51 8.11795 8.114 2.50995 15.026 2.50995C21.937 2.50995 27.54 8.11695 27.54 15.028C27.541 21.941 21.937 27.542 15.026 27.542Z"
            fill="white" />
    </g>
    <defs>
        <clipPath id="clip0_20_3271">
            <rect width="30.051" height="30.051" fill="white" />
        </clipPath>
    </defs>
</svg>