<svg width="120" height="121" viewBox="0 0 120 121" fill="none" xmlns="http://www.w3.org/2000/svg">
<rect x="1" y="1.38965" width="118" height="118" rx="59" stroke="#D4DCFF" stroke-width="2"/>
<g clip-path="url(#clip0_6_1548)">
<path d="M52.6611 72.3428C52.6611 72.3135 52.6538 72.2842 52.6392 72.2549C52.6245 72.2256 52.6172 72.1963 52.6172 72.167C52.6172 72.1377 52.6099 72.1084 52.5952 72.0791C52.5806 72.0498 52.5586 72.0352 52.5293 72.0352C52.5293 72.0059 52.5146 71.9766 52.4854 71.9473C52.4561 71.918 52.4414 71.9033 52.4414 71.9033C52.4121 71.874 52.3828 71.8521 52.3535 71.8374C52.3242 71.8228 52.3096 71.8008 52.3096 71.7715C52.2803 71.7715 52.251 71.7642 52.2217 71.7495C52.1924 71.7349 52.1631 71.7129 52.1338 71.6836C52.1045 71.6836 52.0752 71.6763 52.0459 71.6616C52.0166 71.647 51.9873 71.6396 51.958 71.6396C51.8994 71.6396 51.8481 71.6396 51.8042 71.6396C51.7603 71.6396 51.709 71.6396 51.6504 71.6396C51.6211 71.6396 51.5918 71.647 51.5625 71.6616C51.5332 71.6763 51.5039 71.6836 51.4746 71.6836C51.4453 71.7129 51.416 71.7349 51.3867 71.7495C51.3574 71.7642 51.3281 71.7715 51.2988 71.7715C51.2988 71.8008 51.2842 71.8228 51.2549 71.8374C51.2256 71.8521 51.1963 71.874 51.167 71.9033C51.167 71.9033 51.1523 71.918 51.123 71.9473C51.0938 71.9766 51.0791 72.0059 51.0791 72.0352C51.0498 72.0352 51.0278 72.0498 51.0132 72.0791C50.9985 72.1084 50.9912 72.1377 50.9912 72.167C50.9912 72.1963 50.9839 72.2256 50.9692 72.2549C50.9546 72.2842 50.9473 72.3135 50.9473 72.3428C50.9473 72.3721 50.9473 72.4014 50.9473 72.4307C50.9473 72.46 50.9473 72.4893 50.9473 72.5186C50.9473 72.5479 50.9473 72.5771 50.9473 72.6064C50.9473 72.6357 50.9473 72.665 50.9473 72.6943C50.9473 72.7236 50.9546 72.7456 50.9692 72.7603C50.9839 72.7749 50.9912 72.7969 50.9912 72.8262C50.9912 72.8555 50.9985 72.8848 51.0132 72.9141C51.0278 72.9434 51.0498 72.9727 51.0791 73.002C51.0791 73.0312 51.0938 73.0532 51.123 73.0679C51.1523 73.0825 51.167 73.1045 51.167 73.1338C51.1963 73.1631 51.2256 73.1851 51.2549 73.1997C51.2842 73.2144 51.2988 73.2217 51.2988 73.2217C51.3281 73.251 51.3574 73.2729 51.3867 73.2876C51.416 73.3022 51.4453 73.3096 51.4746 73.3096C51.5039 73.3389 51.5332 73.3535 51.5625 73.3535C51.5918 73.3535 51.6211 73.3535 51.6504 73.3535C51.6797 73.3828 51.709 73.3975 51.7383 73.3975C51.7676 73.3975 51.7822 73.3975 51.7822 73.3975C51.8115 73.3975 51.8408 73.3975 51.8701 73.3975C51.8994 73.3975 51.9287 73.3828 51.958 73.3535C51.9873 73.3535 52.0166 73.3535 52.0459 73.3535C52.0752 73.3535 52.1045 73.3389 52.1338 73.3096C52.1631 73.3096 52.1924 73.3022 52.2217 73.2876C52.251 73.2729 52.2803 73.251 52.3096 73.2217C52.3096 73.2217 52.3242 73.2144 52.3535 73.1997C52.3828 73.1851 52.4121 73.1631 52.4414 73.1338C52.4414 73.1045 52.4561 73.0825 52.4854 73.0679C52.5146 73.0532 52.5293 73.0312 52.5293 73.002C52.5586 72.9727 52.5806 72.9434 52.5952 72.9141C52.6099 72.8848 52.6172 72.8555 52.6172 72.8262C52.6172 72.7969 52.6245 72.7749 52.6392 72.7603C52.6538 72.7456 52.6611 72.7236 52.6611 72.6943C52.6611 72.665 52.6611 72.6357 52.6611 72.6064C52.6611 72.5771 52.6611 72.5479 52.6611 72.5186C52.6611 72.4893 52.6611 72.46 52.6611 72.4307C52.6611 72.4014 52.6611 72.3721 52.6611 72.3428ZM77.9297 72.6064C77.9297 72.6064 77.9297 72.5918 77.9297 72.5625C77.5195 71.625 76.8677 70.9951 75.9741 70.6729C75.0806 70.3506 74.0771 70.3799 72.9639 70.7607L66.8555 72.4307C66.6797 71.9033 66.3721 71.4272 65.9326 71.0024C65.4932 70.5776 64.9658 70.248 64.3506 70.0137C64.3506 70.0137 64.3506 69.999 64.3506 69.9697L57.583 67.6846C57.3193 67.333 56.7334 66.8203 55.8252 66.1465C54.917 65.4727 53.6426 65.1357 52.002 65.1357C50.8594 65.1357 49.8047 65.4653 48.8379 66.1245C47.8711 66.7837 47.0947 67.5527 46.5088 68.4316H38.3789C38.1445 68.4316 37.9395 68.5122 37.7637 68.6733C37.5879 68.8345 37.5 69.0469 37.5 69.3105V80.3848C37.5 80.6191 37.5879 80.8242 37.7637 81C37.9395 81.1758 38.1445 81.2637 38.3789 81.2637H43.6084C43.8428 81.2637 44.0479 81.1758 44.2236 81C44.3994 80.8242 44.4873 80.6191 44.4873 80.3848V79.6377H46.9482C47.1826 79.6377 47.3877 79.5498 47.5635 79.374C47.7393 79.1982 47.8271 78.9932 47.8271 78.7588V78.4951C48.5303 78.5537 49.0723 78.6636 49.4531 78.8247C49.834 78.9858 50.3613 79.2568 51.0352 79.6377C51.5332 79.9307 52.1924 80.2969 53.0127 80.7363C53.833 81.1758 54.9316 81.7031 56.3086 82.3184C56.3086 82.3477 56.3159 82.3623 56.3306 82.3623C56.3452 82.3623 56.3525 82.3623 56.3525 82.3623C56.6162 82.4502 56.9897 82.5601 57.4731 82.6919C57.9565 82.8237 58.5205 82.8896 59.165 82.8896C59.6045 82.8896 60.0732 82.8457 60.5713 82.7578C61.0693 82.6699 61.5674 82.5088 62.0654 82.2744L75.6006 77.3965C75.6299 77.3965 75.6519 77.3965 75.6665 77.3965C75.6812 77.3965 75.6885 77.3965 75.6885 77.3965C76.333 77.1035 76.9922 76.5469 77.666 75.7266C78.3398 74.9062 78.4277 73.8662 77.9297 72.6064ZM42.7295 79.5059H39.2578V70.1895H42.7295V79.5059ZM46.0693 77.8799H44.4873V70.1895H46.0693V77.8799ZM74.9854 75.7705L61.4502 80.6045C61.4502 80.6045 61.4429 80.6118 61.4282 80.6265C61.4136 80.6411 61.4062 80.6484 61.4062 80.6484C61.4062 80.6484 61.3916 80.6484 61.3623 80.6484C60.4248 81.0879 59.5532 81.2417 58.7476 81.1099C57.9419 80.978 57.3633 80.8535 57.0117 80.7363C55.6934 80.1211 54.6387 79.6084 53.8477 79.1982C53.0566 78.7881 52.4121 78.4219 51.9141 78.0996C51.1816 77.6895 50.5591 77.3818 50.0464 77.1768C49.5337 76.9717 48.7939 76.8252 47.8271 76.7373V69.6621C48.2373 68.959 48.8159 68.3218 49.563 67.7505C50.3101 67.1792 51.123 66.8936 52.002 66.8936C53.4961 66.8936 54.5801 67.2158 55.2539 67.8604C55.9277 68.5049 56.2793 68.8564 56.3086 68.915C56.3672 69.0029 56.4331 69.0762 56.5063 69.1348C56.5796 69.1934 56.6748 69.2373 56.792 69.2666L63.7793 71.6396C64.3359 71.8447 64.7461 72.167 65.0098 72.6064C65.2734 73.0459 65.332 73.5 65.1855 73.9688C65.127 74.2031 65.0244 74.4082 64.8779 74.584C64.7314 74.7598 64.5703 74.9062 64.3945 75.0234C64.1895 75.1113 63.9771 75.1699 63.7573 75.1992C63.5376 75.2285 63.3105 75.2139 63.0762 75.1553L55.21 72.6504C54.9756 72.5918 54.7485 72.6138 54.5288 72.7163C54.3091 72.8188 54.1699 72.9873 54.1113 73.2217C54.0234 73.4561 54.0381 73.6831 54.1553 73.9028C54.2725 74.1226 54.4482 74.2617 54.6826 74.3203L62.5488 76.8252C62.5781 76.8252 62.5928 76.8252 62.5928 76.8252C62.7393 76.8838 62.8931 76.9277 63.0542 76.957C63.2153 76.9863 63.3838 77.001 63.5596 77.001C63.8525 77.001 64.1382 76.957 64.4165 76.8691C64.6948 76.7812 64.9658 76.6787 65.2295 76.5615C65.6396 76.3271 65.9839 76.0269 66.2622 75.6606C66.5405 75.2944 66.7529 74.8916 66.8994 74.4521C66.8994 74.4229 66.9067 74.3862 66.9214 74.3423C66.936 74.2983 66.9434 74.2617 66.9434 74.2324L73.5352 72.4307C74.0039 72.2549 74.5093 72.189 75.0513 72.2329C75.5933 72.2769 76.0107 72.6211 76.3037 73.2656C76.5967 73.998 76.5015 74.5767 76.0181 75.0015C75.5347 75.4263 75.1904 75.6826 74.9854 75.7705ZM69.0527 49.4473C69.0527 49.418 69.0454 49.3887 69.0308 49.3594C69.0161 49.3301 69.0088 49.3008 69.0088 49.2715C69.0088 49.2422 69.0015 49.2202 68.9868 49.2056C68.9722 49.1909 68.9502 49.1689 68.9209 49.1396C68.9209 49.1104 68.9062 49.0884 68.877 49.0737C68.8477 49.0591 68.833 49.0371 68.833 49.0078C68.8037 48.9785 68.7744 48.9565 68.7451 48.9419C68.7158 48.9272 68.7012 48.9053 68.7012 48.876C68.6719 48.876 68.6426 48.8687 68.6133 48.854C68.584 48.8394 68.5547 48.832 68.5254 48.832C68.4961 48.8027 68.4668 48.7881 68.4375 48.7881C68.4082 48.7881 68.3789 48.7734 68.3496 48.7441C68.291 48.7441 68.2397 48.7441 68.1958 48.7441C68.1519 48.7441 68.1006 48.7441 68.042 48.7441C68.0127 48.7734 67.9834 48.7881 67.9541 48.7881C67.9248 48.7881 67.8955 48.8027 67.8662 48.832C67.8369 48.832 67.8076 48.8394 67.7783 48.854C67.749 48.8687 67.7197 48.876 67.6904 48.876C67.6904 48.9053 67.6758 48.9272 67.6465 48.9419C67.6172 48.9565 67.5879 48.9785 67.5586 49.0078C67.5586 49.0371 67.5439 49.0591 67.5146 49.0737C67.4854 49.0884 67.4707 49.1104 67.4707 49.1396C67.4414 49.1689 67.4194 49.1909 67.4048 49.2056C67.3901 49.2202 67.3828 49.2422 67.3828 49.2715C67.3828 49.3008 67.3755 49.3301 67.3608 49.3594C67.3462 49.3887 67.3389 49.418 67.3389 49.4473C67.3389 49.4766 67.3315 49.5059 67.3169 49.5352C67.3022 49.5645 67.2949 49.5938 67.2949 49.623C67.2949 49.6523 67.3022 49.6816 67.3169 49.7109C67.3315 49.7402 67.3389 49.7695 67.3389 49.7988C67.3389 49.8281 67.3462 49.8574 67.3608 49.8867C67.3755 49.916 67.3828 49.9453 67.3828 49.9746C67.3828 50.0039 67.3901 50.0259 67.4048 50.0405C67.4194 50.0552 67.4414 50.0771 67.4707 50.1064C67.4707 50.1357 67.4854 50.1577 67.5146 50.1724C67.5439 50.187 67.5586 50.209 67.5586 50.2383C67.5879 50.2676 67.6172 50.2896 67.6465 50.3042C67.6758 50.3188 67.6904 50.3408 67.6904 50.3701C67.7197 50.3701 67.749 50.3774 67.7783 50.3921C67.8076 50.4067 67.8369 50.4141 67.8662 50.4141C67.8955 50.4434 67.9248 50.458 67.9541 50.458C67.9834 50.458 68.0127 50.4727 68.042 50.502C68.0713 50.502 68.1006 50.502 68.1299 50.502C68.1592 50.502 68.1738 50.502 68.1738 50.502C68.2031 50.502 68.2324 50.502 68.2617 50.502C68.291 50.502 68.3203 50.502 68.3496 50.502C68.3789 50.4727 68.4082 50.458 68.4375 50.458C68.4668 50.458 68.4961 50.4434 68.5254 50.4141C68.5547 50.4141 68.584 50.4067 68.6133 50.3921C68.6426 50.3774 68.6719 50.3701 68.7012 50.3701C68.7012 50.3408 68.7158 50.3188 68.7451 50.3042C68.7744 50.2896 68.8037 50.2676 68.833 50.2383C68.833 50.209 68.8477 50.187 68.877 50.1724C68.9062 50.1577 68.9209 50.1357 68.9209 50.1064C68.9502 50.0771 68.9722 50.0552 68.9868 50.0405C69.0015 50.0259 69.0088 50.0039 69.0088 49.9746C69.0088 49.9453 69.0161 49.916 69.0308 49.8867C69.0454 49.8574 69.0527 49.8281 69.0527 49.7988C69.0527 49.7695 69.0527 49.7402 69.0527 49.7109C69.0527 49.6816 69.0527 49.6523 69.0527 49.623C69.0527 49.5938 69.0527 49.5645 69.0527 49.5352C69.0527 49.5059 69.0527 49.4766 69.0527 49.4473ZM81.6211 40.8779H76.3916C76.1572 40.8779 75.9521 40.9585 75.7764 41.1196C75.6006 41.2808 75.5127 41.4932 75.5127 41.7568V42.5039H73.0518C72.8174 42.5039 72.6123 42.5918 72.4365 42.7676C72.2607 42.9434 72.1729 43.1484 72.1729 43.3828V43.6465C71.4697 43.5879 70.9277 43.478 70.5469 43.3169C70.166 43.1558 69.6387 42.8848 68.9648 42.5039C68.4668 42.2109 67.8076 41.8374 66.9873 41.3833C66.167 40.9292 65.0684 40.3945 63.6914 39.7793C63.6914 39.7793 63.6841 39.7793 63.6694 39.7793C63.6548 39.7793 63.6475 39.7793 63.6475 39.7793C63.208 39.6035 62.4536 39.4351 61.3843 39.2739C60.3149 39.1128 59.165 39.3105 57.9346 39.8672L54.375 41.1416L51.3867 38.1533C51.2109 37.9775 51.0059 37.8896 50.7715 37.8896C50.5371 37.8896 50.332 37.9775 50.1562 38.1533L40.3564 47.9531C40.21 48.0996 40.1294 48.29 40.1147 48.5244C40.1001 48.7588 40.1807 48.9785 40.3564 49.1836L57.0996 65.8828C57.2168 66.0293 57.4072 66.1099 57.6709 66.1245C57.9346 66.1392 58.1543 66.0586 58.3301 65.8828L67.2949 56.9619C67.3828 56.9619 67.4927 56.9692 67.6245 56.9839C67.7563 56.9985 67.8809 57.0059 67.998 57.0059C69.1406 57.0059 70.1953 56.6689 71.1621 55.9951C72.1289 55.3213 72.9053 54.5596 73.4912 53.71H81.6211C81.8555 53.71 82.0605 53.6221 82.2363 53.4463C82.4121 53.2705 82.5 53.0654 82.5 52.8311V41.7568C82.5 41.4932 82.4121 41.2808 82.2363 41.1196C82.0605 40.9585 81.8555 40.8779 81.6211 40.8779ZM50.7715 39.999L52.793 42.0205C52.5 42.1963 52.1777 42.3354 51.8262 42.438C51.4746 42.5405 51.123 42.5918 50.7715 42.5918C50.4199 42.5918 50.0757 42.5405 49.7388 42.438C49.4019 42.3354 49.0869 42.1963 48.7939 42.0205L50.7715 39.999ZM44.2236 50.5459L42.2461 48.5684L44.2236 46.5469C44.4287 46.8398 44.5752 47.1548 44.6631 47.4917C44.751 47.8286 44.7949 48.1875 44.7949 48.5684C44.7949 48.9199 44.751 49.2642 44.6631 49.6011C44.5752 49.938 44.4287 50.2529 44.2236 50.5459ZM57.7148 64.0371L55.6934 62.0156C56.3086 61.6641 56.9824 61.4883 57.7148 61.4883C58.4473 61.4883 59.1211 61.6641 59.7363 62.0156L57.7148 64.0371ZM60.9668 60.7852C60 60.082 58.916 59.7305 57.7148 59.7305C56.5137 59.7305 55.4297 60.082 54.4629 60.7852L45.498 51.8203C45.8496 51.3516 46.1133 50.8389 46.2891 50.2822C46.4648 49.7256 46.5527 49.1543 46.5527 48.5684C46.5527 47.9531 46.4648 47.3672 46.2891 46.8105C46.1133 46.2539 45.8496 45.7412 45.498 45.2725L47.5195 43.2949C47.9883 43.6172 48.501 43.8735 49.0576 44.064C49.6143 44.2544 50.1855 44.3496 50.7715 44.3496C51.3867 44.3496 51.9653 44.2544 52.5073 44.064C53.0493 43.8735 53.5693 43.6172 54.0674 43.2949L55.957 45.1846C55.752 45.2139 55.5469 45.2651 55.3418 45.3384C55.1367 45.4116 54.9463 45.4922 54.7705 45.5801C54.4482 45.7559 54.1699 45.9756 53.9355 46.2393C53.7012 46.5029 53.4961 46.7959 53.3203 47.1182C52.8223 47.2061 52.3535 47.3672 51.9141 47.6016C51.4746 47.8359 51.0645 48.1289 50.6836 48.4805C49.7168 49.4473 49.2334 50.6265 49.2334 52.0181C49.2334 53.4097 49.7168 54.5889 50.6836 55.5557C51.1816 56.0537 51.7383 56.4272 52.3535 56.6763C52.9688 56.9253 53.5986 57.0498 54.2432 57.0498C54.8877 57.0498 55.5176 56.9253 56.1328 56.6763C56.748 56.4272 57.3047 56.0537 57.8027 55.5557C58.125 55.2334 58.396 54.8818 58.6157 54.501C58.8354 54.1201 58.9893 53.7246 59.0771 53.3145L62.0654 54.3252C61.8896 55.0869 61.8823 55.856 62.0435 56.6323C62.2046 57.4087 62.5195 58.1191 62.9883 58.7637L60.9668 60.7852ZM55.6494 52.1279L57.4072 52.7432C57.3486 53.0361 57.2461 53.3145 57.0996 53.5781C56.9531 53.8418 56.7627 54.0908 56.5283 54.3252C55.9131 54.9697 55.1514 55.292 54.2432 55.292C53.335 55.292 52.5732 54.9697 51.958 54.3252C51.3135 53.6807 50.9912 52.9116 50.9912 52.0181C50.9912 51.1245 51.3135 50.3555 51.958 49.7109C52.1045 49.5645 52.2656 49.4326 52.4414 49.3154C52.6172 49.1982 52.8076 49.0957 53.0127 49.0078C53.1006 49.6816 53.3716 50.3042 53.8257 50.8755C54.2798 51.4468 54.8877 51.8643 55.6494 52.1279ZM64.2627 57.4893C64.0869 57.2256 63.9551 56.9399 63.8672 56.6323C63.7793 56.3247 63.7207 56.0098 63.6914 55.6875C63.8965 55.834 64.1309 55.9805 64.3945 56.127C64.6582 56.2734 64.9365 56.4053 65.2295 56.5225L64.2627 57.4893ZM72.1729 52.4795C71.7627 53.1533 71.1841 53.7832 70.437 54.3691C69.6899 54.9551 68.877 55.248 67.998 55.248C67.8223 55.248 67.6611 55.2407 67.5146 55.2261C67.3682 55.2114 67.2217 55.1895 67.0752 55.1602C66.1377 55.043 65.4053 54.772 64.8779 54.3472C64.3506 53.9224 63.999 53.6074 63.8232 53.4023C63.8232 53.373 63.8086 53.3438 63.7793 53.3145C63.75 53.2852 63.7354 53.2705 63.7354 53.2705C63.6768 53.1533 63.6035 53.0654 63.5156 53.0068C63.4277 52.9482 63.3398 52.8896 63.252 52.8311L56.2207 50.458C55.6641 50.2529 55.2539 49.938 54.9902 49.5132C54.7266 49.0884 54.668 48.6416 54.8145 48.1729C54.8145 48.1729 54.8145 48.1655 54.8145 48.1509C54.8145 48.1362 54.8145 48.1289 54.8145 48.1289C54.873 47.9238 54.9756 47.7334 55.1221 47.5576C55.2686 47.3818 55.4297 47.2354 55.6055 47.1182C55.8105 47.001 56.0229 46.9351 56.2427 46.9204C56.4624 46.9058 56.6895 46.9277 56.9238 46.9863L64.79 49.4473C65.0244 49.5352 65.2515 49.5205 65.4712 49.4033C65.6909 49.2861 65.8301 49.1104 65.8887 48.876C65.9766 48.6416 65.9619 48.4219 65.8447 48.2168C65.7275 48.0117 65.5518 47.8652 65.3174 47.7773L59.0332 45.7998L58.9893 45.7559L55.7373 42.5039L58.5498 41.4932C58.5498 41.4932 58.5645 41.4932 58.5938 41.4932C58.5938 41.4932 58.6084 41.4932 58.6377 41.4932C59.5752 41.0537 60.4468 40.8926 61.2524 41.0098C62.0581 41.127 62.6367 41.2588 62.9883 41.4053C64.3066 41.9912 65.3613 42.4966 66.1523 42.9214C66.9434 43.3462 67.5879 43.7051 68.0859 43.998C68.8184 44.4082 69.4409 44.7231 69.9536 44.9429C70.4663 45.1626 71.2061 45.3164 72.1729 45.4043V52.4795ZM75.5127 51.9521H73.9307V44.2617H75.5127V51.9521ZM80.7422 51.9521H77.2705V42.6357H80.7422V51.9521Z" fill="#4361EE"/>
</g>
<defs>
<clipPath id="clip0_6_1548">
<rect width="45" height="45" fill="white" transform="matrix(1 0 0 -1 37.5 82.8896)"/>
</clipPath>
</defs>
</svg>
