<svg width="120" height="121" viewBox="0 0 120 121" fill="none" xmlns="http://www.w3.org/2000/svg">
<rect x="1" y="1.38965" width="118" height="118" rx="59" stroke="#D5DCFF" stroke-width="2"/>
<g clip-path="url(#clip0_6_1538)">
<path d="M57.2754 37.8896C55.957 38.5928 54.5361 39.2666 53.0127 39.9111C51.4893 40.5557 49.9292 41.1196 48.3325 41.603C46.7358 42.0864 45.1318 42.46 43.5205 42.7236C41.9092 43.0166 40.3418 43.1631 38.8184 43.1631H37.5V44.4814C37.5 47.2646 37.6611 50.0625 37.9834 52.875C38.3057 55.6875 38.833 58.4414 39.5654 61.1367C40.2979 63.832 41.2793 66.4102 42.5098 68.8711C43.7109 71.3613 45.2197 73.6465 47.0361 75.7266C48.3838 77.25 49.9512 78.6782 51.7383 80.0112C53.5254 81.3442 55.3711 82.3037 57.2754 82.8896C59.1797 82.3037 61.0254 81.3442 62.8125 80.0112C64.5996 78.6782 66.167 77.25 67.5146 75.7266C69.3311 73.6465 70.8398 71.3613 72.041 68.8711C73.2715 66.4102 74.2603 63.832 75.0073 61.1367C75.7544 58.4414 76.2744 55.6875 76.5674 52.875C76.8896 50.0625 77.0508 47.2646 77.0508 44.4814V43.1631H75.7324C74.2383 43.1631 72.6855 43.0312 71.0742 42.7676C69.4629 42.4746 67.8589 42.0938 66.2622 41.625C64.6655 41.1562 63.1055 40.5996 61.582 39.9551C60.0586 39.3105 58.623 38.6221 57.2754 37.8896ZM65.625 73.8369C63.8379 75.9463 62.146 77.4624 60.5493 78.3853C58.9526 79.3081 57.8613 79.8867 57.2754 80.1211C56.6895 79.8867 55.5981 79.3081 54.0015 78.3853C52.4048 77.4624 50.7129 75.9463 48.9258 73.8369C47.959 72.7236 46.9629 71.332 45.9375 69.6621C44.9414 67.9922 44.0186 66.0146 43.1689 63.7295C42.3193 61.4443 41.6162 58.8223 41.0596 55.8633C40.5029 52.875 40.1953 49.5059 40.1367 45.7559C42.0703 45.668 43.9453 45.4189 45.7617 45.0088C47.5781 44.5986 49.248 44.1299 50.7715 43.6025C52.2949 43.0752 53.6279 42.5625 54.7705 42.0645C55.9131 41.5664 56.748 41.1709 57.2754 40.8779C57.8027 41.1709 58.6377 41.5664 59.7803 42.0645C60.9229 42.5625 62.2559 43.0752 63.7793 43.6025C65.3027 44.1299 66.9727 44.5986 68.7891 45.0088C70.6055 45.4189 72.4805 45.668 74.4141 45.7559C74.3555 49.5059 74.0479 52.875 73.4912 55.8633C72.9346 58.8223 72.2314 61.4443 71.3818 63.7295C70.5322 66.0146 69.6094 67.9922 68.6133 69.6621C67.5879 71.332 66.5918 72.7236 65.625 73.8369ZM45.4102 57.7529C45.4102 59.3936 45.7178 60.9316 46.333 62.3672C46.9775 63.8027 47.8345 65.0552 48.9038 66.1245C49.9731 67.1938 51.2256 68.0508 52.6611 68.6953C54.0967 69.3105 55.6348 69.6182 57.2754 69.6182C58.916 69.6182 60.4541 69.3105 61.8896 68.6953C63.3252 68.0508 64.5776 67.1938 65.647 66.1245C66.7163 65.0552 67.5732 63.8027 68.2178 62.3672C68.833 60.9316 69.1406 59.3936 69.1406 57.7529C69.1406 56.1123 68.833 54.5596 68.2178 53.0947C67.5732 51.6592 66.7163 50.3994 65.647 49.3154C64.5776 48.2314 63.3252 47.3672 61.8896 46.7227C60.4541 46.1074 58.916 45.7998 57.2754 45.7998C55.6348 45.7998 54.0967 46.1074 52.6611 46.7227C51.2256 47.3672 49.9731 48.2314 48.9038 49.3154C47.8345 50.3994 46.9775 51.6592 46.333 53.0947C45.7178 54.5596 45.4102 56.1123 45.4102 57.7529ZM66.5039 57.7529C66.5039 59.0127 66.2549 60.2139 65.7568 61.3564C65.2881 62.4697 64.6362 63.4438 63.8013 64.2788C62.9663 65.1138 61.9922 65.7656 60.8789 66.2344C59.7363 66.7324 58.5352 66.9814 57.2754 66.9814C56.0156 66.9814 54.8145 66.7324 53.6719 66.2344C52.5586 65.7656 51.5845 65.1138 50.7495 64.2788C49.9146 63.4438 49.2627 62.4697 48.7939 61.3564C48.2959 60.2139 48.0469 59.0127 48.0469 57.7529C48.0469 56.4639 48.2959 55.2627 48.7939 54.1494C49.2627 53.0068 49.9146 52.0107 50.7495 51.1611C51.5845 50.3115 52.5586 49.6523 53.6719 49.1836C54.8145 48.6855 56.0156 48.4365 57.2754 48.4365C58.5352 48.4365 59.7363 48.6855 60.8789 49.1836C61.9922 49.6523 62.9663 50.3115 63.8013 51.1611C64.6362 52.0107 65.2881 53.0068 65.7568 54.1494C66.2549 55.2627 66.5039 56.4639 66.5039 57.7529ZM52.9248 56.8301L51.0791 58.6758L55.957 63.5977L63.4717 55.9512L61.626 54.1055L55.957 59.8184L52.9248 56.8301Z" fill="#4361EE"/>
</g>
<defs>
<clipPath id="clip0_6_1538">
<rect width="45" height="45" fill="white" transform="matrix(1 0 0 -1 37.5 82.8896)"/>
</clipPath>
</defs>
</svg>
