<svg width="120" height="121" viewBox="0 0 120 121" fill="none" xmlns="http://www.w3.org/2000/svg">
<rect x="1" y="1.38965" width="118" height="118" rx="59" stroke="#D4DCFF" stroke-width="2"/>
<g clip-path="url(#clip0_6_1543)">
<path d="M78.5449 61.708C77.9883 61.708 77.4609 61.8179 76.9629 62.0376C76.4648 62.2573 76.0254 62.5723 75.6445 62.9824L74.5898 64.125C74.5898 63.6562 74.5898 62.3086 74.5898 60.082C74.5898 57.8555 74.5898 56.5371 74.5898 56.127C75.3809 56.3906 76.1792 56.4126 76.9849 56.1929C77.7905 55.9731 78.457 55.5264 78.9844 54.8525C79.6875 54.0029 79.9731 53.0361 79.8413 51.9521C79.7095 50.8682 79.2188 49.9893 78.3691 49.3154L74.5898 46.2832V39.208C74.5898 38.8564 74.458 38.5488 74.1943 38.2852C73.9307 38.0215 73.623 37.8896 73.2715 37.8896H67.998C67.6465 37.8896 67.3389 38.0215 67.0752 38.2852C66.8115 38.5488 66.6797 38.8564 66.6797 39.208V39.9551L65.1855 38.7686C64.4531 38.1826 63.6328 37.8896 62.7246 37.8896C61.8164 37.8896 60.9961 38.1826 60.2637 38.7686L47.0801 49.3154C46.2305 49.9893 45.7397 50.8682 45.6079 51.9521C45.4761 53.0361 45.7617 54.0029 46.4648 54.8525C47.0215 55.5557 47.7026 56.0098 48.5083 56.2148C49.314 56.4199 50.0977 56.3906 50.8594 56.127V61.5762C50.3906 61.6934 49.9365 61.8618 49.4971 62.0815C49.0576 62.3013 48.6328 62.5576 48.2227 62.8506C48.1641 61.7959 47.7539 60.9023 46.9922 60.1699C46.2305 59.4375 45.3223 59.0713 44.2676 59.0713H38.8184C38.4668 59.0713 38.1592 59.2031 37.8955 59.4668C37.6318 59.7305 37.5 60.0381 37.5 60.3896V81.5713C37.5 81.9229 37.6318 82.2305 37.8955 82.4941C38.1592 82.7578 38.4668 82.8896 38.8184 82.8896H44.2676C45.1172 82.8896 45.8862 82.6406 46.5747 82.1426C47.2632 81.6445 47.7393 81.0146 48.0029 80.2529C48.0322 80.2529 48.0688 80.2529 48.1128 80.2529C48.1567 80.2529 48.1934 80.2529 48.2227 80.2529H67.998C69.4336 80.2529 70.8032 79.916 72.1069 79.2422C73.4106 78.5684 74.502 77.6455 75.3809 76.4736L81.709 68.0361C81.9727 67.6846 82.1704 67.311 82.3022 66.9155C82.4341 66.52 82.5 66.1025 82.5 65.6631C82.5 64.5791 82.1118 63.6489 81.3354 62.8726C80.5591 62.0962 79.6289 61.708 78.5449 61.708ZM45.5859 78.9346C45.5859 79.2861 45.4541 79.5938 45.1904 79.8574C44.9268 80.1211 44.6191 80.2529 44.2676 80.2529H40.1367V61.708H44.2676C44.6191 61.708 44.9268 61.8398 45.1904 62.1035C45.4541 62.3672 45.5859 62.6748 45.5859 63.0264V78.9346ZM69.3164 40.5264H71.9531V44.1738L69.3164 42.0645V40.5264ZM50.376 53.4463C50.083 53.6514 49.7534 53.7393 49.3872 53.71C49.021 53.6807 48.7354 53.5195 48.5303 53.2266C48.2959 52.9336 48.2007 52.604 48.2446 52.2378C48.2886 51.8716 48.4424 51.5859 48.7061 51.3809L61.8896 40.834C62.1533 40.6289 62.4316 40.5264 62.7246 40.5264C63.0176 40.5264 63.2959 40.6289 63.5596 40.834L76.7432 51.3809C77.0068 51.5859 77.1606 51.8716 77.2046 52.2378C77.2485 52.604 77.1533 52.9336 76.9189 53.2266C76.7139 53.5195 76.4282 53.6807 76.062 53.71C75.6958 53.7393 75.3662 53.6514 75.0732 53.4463L63.5596 44.2178C63.4424 44.1006 63.3105 44.02 63.1641 43.9761C63.0176 43.9321 62.8711 43.9102 62.7246 43.9102C62.5781 43.9102 62.4316 43.9321 62.2852 43.9761C62.1387 44.02 62.0068 44.1006 61.8896 44.2178C61.7725 44.3057 61.1279 44.8184 59.9561 45.7559C58.7842 46.6934 57.5098 47.7114 56.1328 48.8101C54.7559 49.9087 53.4814 50.9268 52.3096 51.8643C51.1377 52.8018 50.4932 53.3291 50.376 53.4463ZM65.3613 56.4346H60.0879C59.7363 56.4346 59.4287 56.5664 59.165 56.8301C58.9014 57.0938 58.7695 57.4014 58.7695 57.7529V62.8506C57.9785 62.2939 57.1362 61.8765 56.2427 61.5981C55.3491 61.3198 54.4336 61.1807 53.4961 61.1807V54.2812L62.7246 46.8984L71.9531 54.2812C71.9531 54.3105 71.9531 54.9111 71.9531 56.083C71.9531 57.2256 71.9531 58.4854 71.9531 59.8623C71.9531 61.2393 71.9531 62.499 71.9531 63.6416C71.9531 64.7842 71.9531 65.3701 71.9531 65.3994V66.9375L71.7773 67.1133C71.5137 66.3223 71.0376 65.6631 70.3491 65.1357C69.6606 64.6084 68.877 64.3447 67.998 64.3447H66.6797V57.7529C66.6797 57.4014 66.5479 57.0938 66.2842 56.8301C66.0205 56.5664 65.7129 56.4346 65.3613 56.4346ZM64.043 59.0713V64.3447H61.4062V59.0713H64.043ZM79.5996 66.4541L73.2715 74.8916C72.627 75.7412 71.8359 76.4077 70.8984 76.8911C69.9609 77.3745 68.9941 77.6162 67.998 77.6162H48.2227V66.2783L49.1455 65.4434C50.376 64.3594 51.8262 63.8174 53.4961 63.8174C55.166 63.8174 56.6162 64.3594 57.8467 65.4434C58.0811 65.6484 58.2568 65.8096 58.374 65.9268C58.4912 66.0439 58.6084 66.1318 58.7256 66.1904C58.7549 66.2197 58.9307 66.3589 59.2529 66.6079C59.5752 66.8569 59.8535 66.9814 60.0879 66.9814C60.1172 66.9814 60.542 66.9814 61.3623 66.9814C62.2119 66.9814 63.1274 66.9814 64.1089 66.9814C65.0903 66.9814 65.9766 66.9814 66.7676 66.9814C67.5879 66.9814 67.998 66.9814 67.998 66.9814C68.3496 66.9814 68.6572 67.1133 68.9209 67.377C69.1846 67.6406 69.3164 67.9482 69.3164 68.2998C69.3164 68.6514 69.1846 68.959 68.9209 69.2227C68.6572 69.4863 68.3496 69.6182 67.998 69.6182C67.793 69.6182 67.1338 69.6182 66.0205 69.6182C64.9072 69.6182 63.728 69.6182 62.4829 69.6182C61.2378 69.6182 60.1025 69.6182 59.0771 69.6182C58.0518 69.6182 57.5098 69.6182 57.4512 69.6182C57.0996 69.6182 56.792 69.75 56.5283 70.0137C56.2646 70.2773 56.1328 70.585 56.1328 70.9365C56.1328 71.2881 56.2646 71.5957 56.5283 71.8594C56.792 72.123 57.0996 72.2549 57.4512 72.2549C57.832 72.2549 58.5791 72.2549 59.6924 72.2549C60.835 72.2549 62.0361 72.2549 63.2959 72.2549C64.5557 72.2549 65.7275 72.2549 66.8115 72.2549C67.8955 72.2549 68.584 72.2549 68.877 72.2549C69.4336 72.2549 69.9609 72.145 70.459 71.9253C70.957 71.7056 71.3965 71.3906 71.7773 70.9805L77.5781 64.7842C77.6953 64.6377 77.8418 64.5278 78.0176 64.4546C78.1934 64.3813 78.3691 64.3447 78.5449 64.3447C78.8965 64.3447 79.2041 64.4766 79.4678 64.7402C79.7314 65.0039 79.8633 65.3115 79.8633 65.6631C79.8633 65.8096 79.8413 65.9487 79.7974 66.0806C79.7534 66.2124 79.6875 66.3369 79.5996 66.4541Z" fill="#4361EE"/>
</g>
<defs>
<clipPath id="clip0_6_1543">
<rect width="45" height="45" fill="white" transform="matrix(1 0 0 -1 37.5 82.8896)"/>
</clipPath>
</defs>
</svg>
