<svg width="120" height="121" viewBox="0 0 120 121" fill="none" xmlns="http://www.w3.org/2000/svg">
<rect x="1" y="1.38965" width="118" height="118" rx="59" stroke="#D4DCFF" stroke-width="2"/>
<g clip-path="url(#clip0_6_1553)">
<path d="M45.4102 52.7432V52.6992V60.3896C45.4102 60.7412 45.542 61.0488 45.8057 61.3125C46.0693 61.5762 46.377 61.708 46.7285 61.708H59.0332C59.3848 61.708 59.6924 61.5762 59.9561 61.3125C60.2197 61.0488 60.3516 60.7412 60.3516 60.3896V52.6992V52.7432C60.498 52.8311 60.6445 52.9043 60.791 52.9629C60.9375 53.0215 61.084 53.0508 61.2305 53.0508C61.4062 53.0508 61.582 53.0142 61.7578 52.9409C61.9336 52.8677 62.0947 52.7432 62.2412 52.5674C62.4756 52.3037 62.5781 51.9888 62.5488 51.6226C62.5195 51.2563 62.373 50.9561 62.1094 50.7217L53.7598 43.5586C53.4961 43.3535 53.2031 43.251 52.8809 43.251C52.5586 43.251 52.2656 43.3535 52.002 43.5586L43.6523 50.7217C43.3887 50.9561 43.2422 51.2563 43.2129 51.6226C43.1836 51.9888 43.2861 52.3037 43.5205 52.5674C43.7549 52.8604 44.0552 53.0215 44.4214 53.0508C44.7876 53.0801 45.1172 52.9775 45.4102 52.7432ZM52.8809 46.3271L57.7148 50.458V59.0713H54.1992V56.874C54.1992 56.5225 54.0674 56.2148 53.8037 55.9512C53.54 55.6875 53.2324 55.5557 52.8809 55.5557C52.5293 55.5557 52.2217 55.6875 51.958 55.9512C51.6943 56.2148 51.5625 56.5225 51.5625 56.874V59.0713H48.0469V50.458L52.8809 46.3271ZM52.002 52.9189H53.7598C54.1113 52.9189 54.4189 52.7871 54.6826 52.5234C54.9463 52.2598 55.0781 51.9521 55.0781 51.6006C55.0781 51.249 54.9463 50.9414 54.6826 50.6777C54.4189 50.4141 54.1113 50.2822 53.7598 50.2822H52.002C51.6504 50.2822 51.3428 50.4141 51.0791 50.6777C50.8154 50.9414 50.6836 51.249 50.6836 51.6006C50.6836 51.9521 50.8154 52.2598 51.0791 52.5234C51.3428 52.7871 51.6504 52.9189 52.002 52.9189ZM44.0918 66.9814H56.3965C56.748 66.9814 57.0557 66.8496 57.3193 66.5859C57.583 66.3223 57.7148 66.0146 57.7148 65.6631C57.7148 65.3115 57.583 65.0039 57.3193 64.7402C57.0557 64.4766 56.748 64.3447 56.3965 64.3447H44.0918C43.7402 64.3447 43.4326 64.4766 43.1689 64.7402C42.9053 65.0039 42.7734 65.3115 42.7734 65.6631C42.7734 66.0146 42.9053 66.3223 43.1689 66.5859C43.4326 66.8496 43.7402 66.9814 44.0918 66.9814ZM44.0918 72.2549H56.3965C56.748 72.2549 57.0557 72.123 57.3193 71.8594C57.583 71.5957 57.7148 71.2881 57.7148 70.9365C57.7148 70.585 57.583 70.2773 57.3193 70.0137C57.0557 69.75 56.748 69.6182 56.3965 69.6182H44.0918C43.7402 69.6182 43.4326 69.75 43.1689 70.0137C42.9053 70.2773 42.7734 70.585 42.7734 70.9365C42.7734 71.2881 42.9053 71.5957 43.1689 71.8594C43.4326 72.123 43.7402 72.2549 44.0918 72.2549ZM80.3906 59.4229L81.3574 58.5C82.1191 57.7383 82.5 56.8081 82.5 55.7095C82.5 54.6108 82.1191 53.6807 81.3574 52.9189C80.5664 52.1279 79.6289 51.7324 78.5449 51.7324C77.4609 51.7324 76.5234 52.1279 75.7324 52.9189L68.2617 60.3896V46.7666H73.9746C74.3262 46.7666 74.6338 46.6348 74.8975 46.3711C75.1611 46.1074 75.293 45.7998 75.293 45.4482V42.8115C75.293 41.4932 74.8169 40.3579 73.8647 39.4058C72.9126 38.4536 71.7773 37.9775 70.459 37.9775H42.334C41.0156 37.9775 39.8804 38.4536 38.9282 39.4058C37.9761 40.3579 37.5 41.4932 37.5 42.8115V77.9678C37.5 79.2861 37.9761 80.4214 38.9282 81.3735C39.8804 82.3257 41.0156 82.8018 42.334 82.8018H70.459C71.7773 82.8018 72.9126 82.3257 73.8647 81.3735C74.8169 80.4214 75.293 79.2861 75.293 77.9678V75.3311C75.293 74.9795 75.1611 74.6719 74.8975 74.4082C74.6338 74.1445 74.3262 74.0127 73.9746 74.0127H68.2617V71.5957C68.2617 71.5664 68.269 71.5518 68.2837 71.5518C68.2983 71.5518 68.3057 71.5518 68.3057 71.5518L78.5449 61.3125L78.8525 61.6201C79.1162 61.8545 79.248 62.1548 79.248 62.521C79.248 62.8872 79.1162 63.2021 78.8525 63.4658L72.041 70.3213C71.7773 70.5557 71.6455 70.856 71.6455 71.2222C71.6455 71.5884 71.7773 71.9033 72.041 72.167C72.1582 72.2842 72.2974 72.3794 72.4585 72.4526C72.6196 72.5259 72.7881 72.5625 72.9639 72.5625C73.1396 72.5625 73.3081 72.5259 73.4692 72.4526C73.6304 72.3794 73.7695 72.2842 73.8867 72.167L80.7422 65.3555C81.5039 64.5645 81.8848 63.627 81.8848 62.543C81.8848 61.459 81.5039 60.5215 80.7422 59.7305L80.3906 59.4229ZM70.459 40.6143C71.0742 40.6143 71.5942 40.8267 72.019 41.2515C72.4438 41.6763 72.6562 42.1963 72.6562 42.8115V44.1299H68.2617V42.8115C68.2617 42.1963 68.4741 41.6763 68.8989 41.2515C69.3237 40.8267 69.8438 40.6143 70.459 40.6143ZM72.6562 76.6494V77.9678C72.6562 78.583 72.4438 79.103 72.019 79.5278C71.5942 79.9526 71.0742 80.165 70.459 80.165C69.8438 80.165 69.3237 79.9526 68.8989 79.5278C68.4741 79.103 68.2617 78.583 68.2617 77.9678V76.6494H72.6562ZM66.1523 80.165H42.334C41.7188 80.165 41.1987 79.9526 40.7739 79.5278C40.3491 79.103 40.1367 78.583 40.1367 77.9678V42.8115C40.1367 42.1963 40.3491 41.6763 40.7739 41.2515C41.1987 40.8267 41.7188 40.6143 42.334 40.6143H66.1523C65.9766 40.9365 65.8447 41.2881 65.7568 41.6689C65.6689 42.0498 65.625 42.4307 65.625 42.8115V63.0264L62.6807 65.9707C61.6553 66.9961 60.791 68.1753 60.0879 69.5083C59.3848 70.8413 58.916 72.2402 58.6816 73.7051L57.4951 74.8916H44.0918C43.7402 74.8916 43.4326 75.0234 43.1689 75.2871C42.9053 75.5508 42.7734 75.8584 42.7734 76.21C42.7734 76.5615 42.9053 76.8691 43.1689 77.1328C43.4326 77.3965 43.7402 77.5283 44.0918 77.5283H58.0225C58.2275 77.5283 58.4033 77.4917 58.5498 77.4185C58.6963 77.3452 58.8428 77.25 58.9893 77.1328L60.5273 75.5947C61.4355 75.4189 62.3145 75.1699 63.1641 74.8477C64.0137 74.5254 64.834 74.1299 65.625 73.6611V77.9678C65.625 78.3486 65.6689 78.7295 65.7568 79.1104C65.8447 79.4912 65.9766 79.8428 66.1523 80.165ZM66.416 69.7061C65.7715 70.3506 65.0391 70.9219 64.2188 71.4199C63.3984 71.918 62.5488 72.3135 61.6699 72.6064C61.9629 71.6982 62.3511 70.8413 62.8345 70.0356C63.3179 69.23 63.8965 68.4902 64.5703 67.8164L74.8096 57.5771L76.6992 59.4229L66.416 69.7061ZM79.4678 56.6543L78.5449 57.5771L76.6992 55.6875L77.6221 54.7646C77.8857 54.501 78.1934 54.3691 78.5449 54.3691C78.8965 54.3691 79.2041 54.501 79.4678 54.7646C79.7314 55.0283 79.8633 55.3433 79.8633 55.7095C79.8633 56.0757 79.7314 56.3906 79.4678 56.6543Z" fill="#4361EE"/>
</g>
<defs>
<clipPath id="clip0_6_1553">
<rect width="45" height="45" fill="white" transform="matrix(1 0 0 -1 37.5 82.8896)"/>
</clipPath>
</defs>
</svg>
