<svg width="15" height="14" viewBox="0 0 15 14" fill="none" xmlns="http://www.w3.org/2000/svg">
<g clip-path="url(#clip0_6_2004)">
<path d="M14.1895 2.65234C13.9251 2.77083 13.6562 2.86882 13.3828 2.94629C13.1094 3.02376 12.8268 3.08073 12.5352 3.11719C12.8359 2.9349 13.0957 2.70931 13.3145 2.44043C13.5332 2.17155 13.6927 1.86849 13.793 1.53125C13.5195 1.69531 13.2301 1.83431 12.9248 1.94824C12.6195 2.06217 12.3027 2.15104 11.9746 2.21484C11.7103 1.94141 11.3981 1.72266 11.0381 1.55859C10.6781 1.39453 10.293 1.3125 9.88281 1.3125C9.48177 1.3125 9.10807 1.38997 8.76172 1.54492C8.41536 1.69075 8.1123 1.89355 7.85254 2.15332C7.59277 2.41309 7.38997 2.71615 7.24414 3.0625C7.08919 3.41797 7.01172 3.79167 7.01172 4.18359C7.01172 4.29297 7.01628 4.40234 7.02539 4.51172C7.03451 4.62109 7.05273 4.73047 7.08008 4.83984C6.48763 4.8125 5.90885 4.72135 5.34375 4.56641C4.78776 4.41146 4.25911 4.2041 3.75781 3.94434C3.25651 3.68457 2.78711 3.37695 2.34961 3.02148C1.91211 2.66602 1.51562 2.26953 1.16016 1.83203C1.04167 2.05078 0.948242 2.28092 0.879883 2.52246C0.811523 2.764 0.777344 3.01693 0.777344 3.28125C0.777344 3.78255 0.893555 4.24284 1.12598 4.66211C1.3584 5.08138 1.66602 5.41862 2.04883 5.67383C1.82096 5.66471 1.59538 5.63053 1.37207 5.57129C1.14876 5.51204 0.941406 5.42773 0.75 5.31836C0.75 5.31836 0.75 5.32292 0.75 5.33203C0.75 5.34115 0.75 5.3457 0.75 5.3457C0.75 6.04753 0.971029 6.66048 1.41309 7.18457C1.85514 7.70866 2.39974 8.03906 3.04688 8.17578C2.92839 8.20312 2.80762 8.22363 2.68457 8.2373C2.56152 8.25098 2.43164 8.25781 2.29492 8.25781C2.20378 8.25781 2.11263 8.25553 2.02148 8.25098C1.93034 8.24642 1.83919 8.23503 1.74805 8.2168C1.93945 8.7819 2.27897 9.25358 2.7666 9.63184C3.25423 10.0101 3.8125 10.2038 4.44141 10.2129C3.94922 10.5957 3.40007 10.8965 2.79395 11.1152C2.18783 11.334 1.54753 11.4434 0.873047 11.4434C0.754557 11.4434 0.638346 11.4388 0.524414 11.4297C0.410482 11.4206 0.298828 11.4115 0.189453 11.4023C0.508464 11.6029 0.841146 11.7852 1.1875 11.9492C1.53385 12.1042 1.8916 12.2363 2.26074 12.3457C2.62988 12.4551 3.01042 12.5417 3.40234 12.6055C3.78516 12.6602 4.18164 12.6875 4.5918 12.6875C5.91341 12.6875 7.08008 12.4414 8.0918 11.9492C9.11263 11.4479 9.96712 10.8053 10.6553 10.0215C11.3434 9.23763 11.8698 8.36263 12.2344 7.39648C12.5898 6.43034 12.7676 5.47331 12.7676 4.52539C12.7676 4.46159 12.7653 4.39779 12.7607 4.33398C12.7562 4.27018 12.7539 4.20638 12.7539 4.14258C13.0365 3.94206 13.2985 3.71647 13.54 3.46582C13.7816 3.21517 13.998 2.94401 14.1895 2.65234Z" fill="#0F0F0F"/>
</g>
<defs>
<clipPath id="clip0_6_2004">
<rect width="14" height="14" fill="white" transform="matrix(1 0 0 -1 0.189453 14)"/>
</clipPath>
</defs>
</svg>
