<svg width="15" height="14" viewBox="0 0 15 14" fill="none" xmlns="http://www.w3.org/2000/svg">
<g clip-path="url(#clip0_6_2008)">
<path d="M8.22852 4.18344C9.02148 3.70037 9.59342 3.7072 9.94434 4.20395C10.2952 4.70069 10.2656 5.33188 9.85547 6.0975C9.44531 6.86313 9.06478 7.47609 8.71387 7.93637C8.36296 8.39666 8.0918 8.6268 7.90039 8.6268C7.70898 8.6268 7.52897 8.38071 7.36035 7.88852C7.19173 7.39633 6.99349 6.70362 6.76562 5.8104C6.64714 5.35467 6.54688 4.83058 6.46484 4.23813C6.38281 3.63657 6.26888 3.08286 6.12305 2.577C5.97721 2.07114 5.77214 1.6587 5.50781 1.33969C5.24349 1.0298 4.86979 0.920421 4.38672 1.01157C3.93099 1.10271 3.45703 1.32146 2.96484 1.66782C2.47266 2.01417 2.02148 2.37648 1.61133 2.75473C1.20117 3.13299 0.859375 3.4725 0.585938 3.77329C0.321615 4.06495 0.189453 4.21079 0.189453 4.21079L0.75 4.96274C0.75 4.96274 0.961914 4.8283 1.38574 4.55942C1.80957 4.29054 2.12174 4.27003 2.32227 4.4979C2.41341 4.61638 2.56836 5.00375 2.78711 5.66C3.00586 6.30714 3.236 7.02719 3.47754 7.82016C3.71908 8.61313 3.95378 9.3742 4.18164 10.1034C4.40951 10.8234 4.58268 11.311 4.70117 11.5663C4.91992 12.022 5.30273 12.4504 5.84961 12.8514C6.39648 13.2525 6.99805 13.2433 7.6543 12.8241C7.98242 12.6053 8.4655 12.2225 9.10352 11.6756C9.75065 11.1196 10.4115 10.4452 11.0859 9.65219C11.7604 8.85922 12.3848 7.96599 12.959 6.9725C13.5332 5.97901 13.9206 4.92628 14.1211 3.8143C14.3125 2.72055 14.1439 1.94125 13.6152 1.47641C13.0866 1.02068 12.4486 0.831553 11.7012 0.909028C10.9538 0.986502 10.2292 1.31235 9.52734 1.88657C8.81641 2.45167 8.38346 3.2173 8.22852 4.18344Z" fill="#0F0F0F"/>
</g>
<defs>
<clipPath id="clip0_6_2008">
<rect width="14" height="14" fill="white" transform="matrix(1 0 0 -1 0.189453 14)"/>
</clipPath>
</defs>
</svg>
