<svg width="41" height="31" viewBox="0 0 41 31" fill="none" xmlns="http://www.w3.org/2000/svg">
<g clip-path="url(#clip0_6_1602)">
<path d="M20.9285 17.3169C20.7136 16.2817 20.7527 15.354 21.0457 14.5337C21.3582 13.7133 21.7341 13.02 22.1736 12.4536C22.613 11.8872 23.0281 11.4575 23.4187 11.1645C23.8289 10.8715 24.0339 10.7251 24.0339 10.7251C24.0339 10.7251 23.6726 10.3296 22.95 9.53854C22.2273 8.74752 21.2117 8.21529 19.9031 7.94186C18.614 7.64889 17.5935 7.61959 16.8416 7.85397C16.0896 8.08834 15.3914 8.34225 14.7468 8.61568C14.1023 8.88912 13.6189 9.04537 13.2966 9.08443C12.9744 9.1235 12.8132 9.14303 12.8132 9.14303C11.8953 9.14303 10.9822 8.85494 10.074 8.27877C9.16577 7.7026 7.823 7.63912 6.04565 8.08834C5.44019 8.24459 4.83472 8.52779 4.22925 8.93795C3.62378 9.34811 3.07202 9.85104 2.57397 10.4467C2.07593 11.0424 1.64136 11.7212 1.27026 12.4829C0.918701 13.2446 0.684326 14.0454 0.567139 14.8852C0.449951 15.7251 0.420654 16.6137 0.479248 17.5512C0.557373 18.4887 0.703857 19.436 0.918701 20.393C1.13354 21.3501 1.41675 22.2973 1.76831 23.2348C2.1394 24.1723 2.56909 25.0512 3.05737 25.8715C4.0144 27.5512 4.96167 28.7378 5.89917 29.4311C6.83667 30.1245 7.65698 30.4809 8.36011 30.5005C9.0437 30.52 9.74683 30.3491 10.4695 29.9878C11.1921 29.6264 11.9734 29.3774 12.8132 29.2407C13.6531 29.1235 14.3855 29.2163 15.0105 29.519C15.6355 29.8217 16.3679 30.0903 17.2078 30.3247C18.0281 30.559 18.6824 30.5542 19.1707 30.31C19.6589 30.0659 20.3718 29.5434 21.3093 28.7426C21.7781 28.3325 22.2371 27.7856 22.6863 27.102C23.116 26.3989 23.4968 25.7055 23.8289 25.0219C24.1609 24.3383 24.4246 23.7524 24.6199 23.2641C24.8347 22.7563 24.9421 22.5024 24.9421 22.5024C24.9421 22.5024 24.3757 22.1557 23.2429 21.4624C22.1101 20.769 21.3386 19.3872 20.9285 17.3169ZM17.2664 5.24654C18.1843 4.30904 18.614 3.28365 18.5554 2.17037C18.4968 1.05709 18.4675 0.50045 18.4675 0.50045C18.4675 0.50045 17.9695 0.651819 16.9734 0.954552C15.9773 1.25729 15.0496 1.84811 14.1902 2.72701C13.3308 3.62545 12.8767 4.62155 12.8279 5.71529C12.7791 6.80904 12.7546 7.35592 12.7546 7.35592C12.7546 7.35592 13.2771 7.23873 14.322 7.00436C15.3669 6.76998 16.3484 6.18404 17.2664 5.24654Z" fill="white"/>
</g>
<defs>
<clipPath id="clip0_6_1602">
<rect width="30" height="30" fill="white" transform="matrix(1 0 0 -1 0.449951 30.5)"/>
</clipPath>
</defs>
</svg>
