<svg width="15" height="14" viewBox="0 0 15 14" fill="none" xmlns="http://www.w3.org/2000/svg">
<g clip-path="url(#clip0_6_2000)">
<path d="M4.90625 14V7.61523H7.05273L7.38086 5.12695H4.90625V3.54102C4.90625 3.17643 4.98372 2.88249 5.13867 2.65918C5.29362 2.43587 5.63086 2.32422 6.15039 2.32422H7.46289V0.0957031C7.3444 0.0865889 7.10742 0.0683594 6.75195 0.0410156C6.39648 0.0136719 5.99089 0 5.53516 0C5.0612 0 4.62826 0.072917 4.23633 0.21875C3.8444 0.355469 3.50716 0.562825 3.22461 0.84082C2.94206 1.11882 2.72331 1.46289 2.56836 1.87305C2.41341 2.2832 2.33594 2.75716 2.33594 3.29492V5.12695H0.189453V7.61523H2.33594V14H4.90625Z" fill="#0F0F0F"/>
</g>
<defs>
<clipPath id="clip0_6_2000">
<rect width="14" height="14" fill="white" transform="matrix(1 0 0 -1 0.189453 14)"/>
</clipPath>
</defs>
</svg>
