<svg width="41" height="31" viewBox="0 0 41 31" fill="none" xmlns="http://www.w3.org/2000/svg">
<g clip-path="url(#clip0_6_1595)">
<path d="M5.45099 0.96875C5.11896 0.753906 4.75275 0.612305 4.35236 0.543945C3.95197 0.475586 3.56622 0.490234 3.19513 0.587891L16.701 14.123L21.0955 9.72852L5.45099 0.96875ZM1.49591 1.67188C1.32013 1.92578 1.17853 2.2041 1.07111 2.50684C0.963684 2.80957 0.909973 3.12695 0.909973 3.45898V27.541C0.909973 27.873 0.963684 28.1904 1.07111 28.4932C1.17853 28.7959 1.32013 29.0742 1.49591 29.3281L15.324 15.5L1.49591 1.67188ZM26.8377 12.9219L22.8826 10.7246L18.1072 15.5L22.8826 20.2754L26.8377 18.0781C27.3065 17.8047 27.6727 17.4434 27.9363 16.9941C28.2 16.5449 28.3318 16.0469 28.3318 15.5C28.3318 14.9531 28.2 14.4551 27.9363 14.0059C27.6727 13.5566 27.3065 13.1953 26.8377 12.9219ZM16.701 16.877L3.19513 30.4121C3.29279 30.4512 3.40021 30.4756 3.5174 30.4854C3.63458 30.4951 3.75177 30.5 3.86896 30.5C4.1424 30.5 4.41583 30.4609 4.68927 30.3828C4.96271 30.3047 5.21661 30.1875 5.45099 30.0312L21.0955 21.2715L16.701 16.877Z" fill="white"/>
</g>
<defs>
<clipPath id="clip0_6_1595">
<rect width="30" height="30" fill="white" transform="matrix(1 0 0 -1 0.909973 30.5)"/>
</clipPath>
</defs>
</svg>
