<svg width="55" height="55" viewBox="0 0 55 55" fill="none" xmlns="http://www.w3.org/2000/svg">
<rect width="55" height="55" rx="10" fill="#22577B"/>
<g clip-path="url(#clip0_211_1109)">
<path d="M28.5 35.4922C28.5 35.6328 28.4727 35.7617 28.418 35.8789C28.3633 35.9961 28.2891 36.1016 28.1953 36.1953C28.1016 36.3047 27.9961 36.3828 27.8789 36.4297C27.7617 36.4766 27.6328 36.5 27.4922 36.5C27.3516 36.5 27.2227 36.4766 27.1055 36.4297C26.9883 36.3828 26.8828 36.3047 26.7891 36.1953C26.6953 36.1016 26.6211 35.9961 26.5664 35.8789C26.5117 35.7617 26.4844 35.6328 26.4844 35.4922V19.5078C26.4844 19.3672 26.5117 19.2383 26.5664 19.1211C26.6211 19.0039 26.6953 18.8984 26.7891 18.8047C26.8828 18.6953 26.9883 18.6172 27.1055 18.5703C27.2227 18.5234 27.3516 18.5 27.4922 18.5C27.6328 18.5 27.7617 18.5234 27.8789 18.5703C27.9961 18.6172 28.1016 18.6953 28.1953 18.8047C28.2891 18.8984 28.3633 19.0039 28.418 19.1211C28.4727 19.2383 28.5 19.3672 28.5 19.5078V35.4922ZM21.1875 27.1953C21.1094 27.3047 21.0117 27.3828 20.8945 27.4297C20.7773 27.4766 20.6406 27.5 20.4844 27.5C20.3594 27.5 20.2383 27.4766 20.1211 27.4297C20.0039 27.3828 19.8906 27.3047 19.7812 27.1953C19.6875 27.1016 19.6172 26.9961 19.5703 26.8789C19.5234 26.7617 19.5 26.6328 19.5 26.4922C19.5 26.3516 19.5234 26.2227 19.5703 26.1055C19.6172 25.9883 19.6875 25.8828 19.7812 25.7891L26.6953 18.8984C26.8047 18.7891 26.9258 18.707 27.0586 18.6523C27.1914 18.5977 27.3359 18.5703 27.4922 18.5703C27.6484 18.5703 27.7969 18.5977 27.9375 18.6523C28.0781 18.707 28.1953 18.7891 28.2891 18.8984L35.2031 25.7891C35.2969 25.8828 35.3672 25.9883 35.4141 26.1055C35.4609 26.2227 35.4844 26.3516 35.4844 26.4922C35.4844 26.6328 35.4609 26.7617 35.4141 26.8789C35.3672 26.9961 35.2969 27.1016 35.2031 27.1953C35.1094 27.3047 35.0039 27.3828 34.8867 27.4297C34.7695 27.4766 34.6406 27.5 34.5 27.5C34.3594 27.5 34.2305 27.4766 34.1133 27.4297C33.9961 27.3828 33.8906 27.3047 33.7969 27.1953L26.9062 20.3047C26.875 20.2734 26.8789 20.25 26.918 20.2344C26.957 20.2188 27.0312 20.2031 27.1406 20.1875C27.2656 20.1719 27.3828 20.1641 27.4922 20.1641C27.6016 20.1641 27.7109 20.1719 27.8203 20.1875C27.9453 20.2031 28.0273 20.2188 28.0664 20.2344C28.1055 20.25 28.1094 20.2734 28.0781 20.3047L21.1875 27.1953Z" fill="white"/>
</g>
<defs>
<clipPath id="clip0_211_1109">
<rect width="15" height="25" fill="white" transform="matrix(1 0 0 -1 20 40)"/>
</clipPath>
</defs>
</svg>
